<svg xmlns="http://www.w3.org/2000/svg" width="32" height="32" fill="#0d6efd" viewBox="0 0 16 16">
  <path d="M8 4a.5.5 0 0 1 .5.5V6a.5.5 0 0 1-1 0V4.5A.5.5 0 0 1 8 4M3.732 5.732a.5.5 0 0 1 .707 0l1.06 1.06a.5.5 0 1 1-.706.708l-1.06-1.06a.5.5 0 0 1 0-.708M14 8a.5.5 0 0 1-.5.5H12a.5.5 0 0 1 0-1h1.5a.5.5 0 0 1 .5.5M11.5 5.732a.5.5 0 0 1 0 .708l-1.06 1.06a.5.5 0 1 1-.707-.708l1.06-1.06a.5.5 0 0 1 .707 0M5.5 8a.5.5 0 0 1-.5.5H3.5a.5.5 0 0 1 0-1H5a.5.5 0 0 1 .5.5M8 12a.5.5 0 0 1-.5-.5V10a.5.5 0 0 1 1 0v1.5a.5.5 0 0 1-.5.5"/>
  <path d="M8 0a8 8 0 1 0 0 16A8 8 0 0 0 8 0M1 8a7 7 0 1 1 14 0A7 7 0 0 1 1 8"/>
  <path d="M9.283 4.002V12H7.971V5.338h-.065L6.072 6.656V5.496l1.899-1.494z"/>
</svg>